<svg xmlns="http://www.w3.org/2000/svg" xmlns:xlink="http://www.w3.org/1999/xlink" width="375" zoomAndPan="magnify" viewBox="0 0 281.25 608.999982" height="812" preserveAspectRatio="xMidYMid meet" version="1.0"><defs><clipPath id="e687c154cc"><path d="M 0 484 L 280.503906 484 L 280.503906 608 L 0 608 Z M 0 484 " clip-rule="nonzero"/></clipPath><clipPath id="61855ce731"><path d="M 0 483 L 280.503906 483 L 280.503906 608.113281 L 0 608.113281 Z M 0 483 " clip-rule="nonzero"/></clipPath><clipPath id="a24360aa5e"><path d="M 0 460.007812 L 280.503906 460.007812 L 280.503906 485 L 0 485 Z M 0 460.007812 " clip-rule="nonzero"/></clipPath></defs><g clip-path="url(#e687c154cc)"><path fill="#ecbfe0" d="M -4.371094 484.347656 L 284.871094 484.347656 L 284.871094 607.652344 L -4.371094 607.652344 Z M -4.371094 484.347656 " fill-opacity="1" fill-rule="nonzero"/></g><g clip-path="url(#61855ce731)"><path fill="#ffffff" d="M 285.40625 608.183594 L -4.90625 608.183594 L -4.90625 483.816406 L 285.40625 483.816406 Z M -3.839844 607.117188 L 284.339844 607.117188 L 284.339844 484.882812 L -3.839844 484.882812 Z M -3.839844 607.117188 " fill-opacity="1" fill-rule="nonzero"/></g><g clip-path="url(#a24360aa5e)"><path fill="#e10e71" d="M -4.371094 460.542969 L 284.871094 460.542969 L 284.871094 484.347656 L -4.371094 484.347656 Z M -4.371094 460.542969 " fill-opacity="1" fill-rule="nonzero"/><path fill="#ffffff" d="M 285.40625 484.882812 L -4.90625 484.882812 L -4.90625 460.007812 L 285.40625 460.007812 Z M -3.839844 483.816406 L 284.339844 483.816406 L 284.339844 461.074219 L -3.839844 461.074219 Z M -3.839844 483.816406 " fill-opacity="1" fill-rule="nonzero"/></g><path fill="#ffffff" d="M 233.527344 475.289062 L 240.988281 475.289062 L 240.988281 476.355469 L 233.527344 476.355469 Z M 233.527344 475.289062 " fill-opacity="1" fill-rule="nonzero"/><path fill="#ffffff" d="M 256.355469 477.199219 L 248.894531 477.199219 L 248.894531 469.738281 L 256.355469 469.738281 Z M 249.960938 476.132812 L 255.289062 476.132812 L 255.289062 470.804688 L 249.960938 470.804688 Z M 249.960938 476.132812 " fill-opacity="1" fill-rule="nonzero"/><path fill="#ffffff" d="M 258.488281 475.066406 L 255.824219 475.066406 L 255.824219 474.003906 L 257.421875 474.003906 L 257.421875 468.671875 L 252.09375 468.671875 L 252.09375 470.269531 L 251.027344 470.269531 L 251.027344 467.605469 L 258.488281 467.605469 Z M 258.488281 475.066406 " fill-opacity="1" fill-rule="nonzero"/><path fill="#ffffff" d="M 266.460938 476.289062 L 273.035156 469.714844 L 273.789062 470.46875 L 267.214844 477.042969 Z M 266.460938 476.289062 " fill-opacity="1" fill-rule="nonzero"/><path fill="#ffffff" d="M 266.460938 470.46875 L 267.214844 469.714844 L 273.785156 476.285156 L 273.03125 477.039062 Z M 266.460938 470.46875 " fill-opacity="1" fill-rule="nonzero"/></svg>