<svg xmlns="http://www.w3.org/2000/svg" xmlns:xlink="http://www.w3.org/1999/xlink" width="375" zoomAndPan="magnify" viewBox="0 0 281.25 608.999982" height="812" preserveAspectRatio="xMidYMid meet" version="1.0"><defs><g/><clipPath id="08538303ec"><path d="M 86 285 L 196.351562 285 L 196.351562 304.773438 L 86 304.773438 Z M 86 285 " clip-rule="nonzero"/></clipPath><clipPath id="c9c1c1d3b3"><path d="M 85 283.078125 L 196.351562 283.078125 L 196.351562 304.773438 L 85 304.773438 Z M 85 283.078125 " clip-rule="nonzero"/></clipPath><clipPath id="87d31dd5c3"><path d="M 84.152344 283.078125 L 194 283.078125 L 194 302 L 84.152344 302 Z M 84.152344 283.078125 " clip-rule="nonzero"/></clipPath><clipPath id="5969c02219"><path d="M 84.152344 283.078125 L 196 283.078125 L 196 304 L 84.152344 304 Z M 84.152344 283.078125 " clip-rule="nonzero"/></clipPath><clipPath id="de538890fe"><path d="M 168 283.078125 L 170 283.078125 L 170 303 L 168 303 Z M 168 283.078125 " clip-rule="nonzero"/></clipPath><clipPath id="733601cd3b"><rect x="0" width="31" y="0" height="17"/></clipPath></defs><g clip-path="url(#08538303ec)"><path fill="#e10f72" d="M 92.5625 285.148438 L 190.128906 285.148438 C 190.523438 285.148438 190.910156 285.1875 191.292969 285.261719 C 191.675781 285.339844 192.050781 285.453125 192.410156 285.601562 C 192.773438 285.75 193.117188 285.933594 193.441406 286.152344 C 193.769531 286.371094 194.070312 286.617188 194.34375 286.894531 C 194.621094 287.171875 194.871094 287.472656 195.085938 287.796875 C 195.304688 288.121094 195.488281 288.464844 195.636719 288.828125 C 195.789062 289.191406 195.902344 289.5625 195.976562 289.945312 C 196.054688 290.332031 196.089844 290.71875 196.089844 291.109375 L 196.089844 298.410156 C 196.089844 298.800781 196.054688 299.1875 195.976562 299.570312 C 195.902344 299.957031 195.789062 300.328125 195.636719 300.691406 C 195.488281 301.050781 195.304688 301.394531 195.085938 301.71875 C 194.871094 302.046875 194.621094 302.347656 194.34375 302.625 C 194.070312 302.902344 193.769531 303.148438 193.441406 303.363281 C 193.117188 303.582031 192.773438 303.765625 192.410156 303.917969 C 192.050781 304.066406 191.675781 304.179688 191.292969 304.253906 C 190.910156 304.332031 190.523438 304.371094 190.128906 304.371094 L 92.5625 304.371094 C 92.171875 304.371094 91.78125 304.332031 91.398438 304.253906 C 91.015625 304.179688 90.640625 304.066406 90.28125 303.917969 C 89.917969 303.765625 89.574219 303.582031 89.25 303.363281 C 88.925781 303.148438 88.621094 302.902344 88.347656 302.625 C 88.070312 302.347656 87.824219 302.046875 87.605469 301.71875 C 87.386719 301.394531 87.203125 301.050781 87.054688 300.691406 C 86.902344 300.328125 86.792969 299.957031 86.714844 299.570312 C 86.636719 299.1875 86.601562 298.800781 86.601562 298.410156 L 86.601562 291.109375 C 86.601562 290.71875 86.636719 290.332031 86.714844 289.945312 C 86.792969 289.5625 86.902344 289.191406 87.054688 288.828125 C 87.203125 288.464844 87.386719 288.121094 87.605469 287.796875 C 87.824219 287.472656 88.070312 287.171875 88.347656 286.894531 C 88.621094 286.617188 88.925781 286.371094 89.25 286.152344 C 89.574219 285.933594 89.917969 285.75 90.28125 285.601562 C 90.640625 285.453125 91.015625 285.339844 91.398438 285.261719 C 91.78125 285.1875 92.171875 285.148438 92.5625 285.148438 Z M 92.5625 285.148438 " fill-opacity="1" fill-rule="nonzero"/></g><g clip-path="url(#c9c1c1d3b3)"><path stroke-linecap="butt" transform="matrix(0.243314, 0, 0, 0.243314, 84.288721, 283.079824)" fill="none" stroke-linejoin="miter" d="M 34.004504 8.501821 L 434.993848 8.501821 C 436.615337 8.501821 438.204717 8.662364 439.778042 8.967397 C 441.351368 9.288484 442.892585 9.75406 444.369585 10.364125 C 445.862639 10.97419 447.275421 11.728744 448.607931 12.627787 C 449.956496 13.52683 451.192681 14.538254 452.316485 15.678113 C 453.456343 16.817971 454.483821 18.054155 455.36681 19.386666 C 456.265853 20.719176 457.020408 22.131959 457.630473 23.625013 C 458.256592 25.118067 458.722168 26.643229 459.0272 28.216555 C 459.348287 29.805935 459.492776 31.395315 459.492776 33.000749 L 459.492776 63.006318 C 459.492776 64.611752 459.348287 66.201132 459.0272 67.774458 C 458.722168 69.363838 458.256592 70.889001 457.630473 72.382055 C 457.020408 73.859054 456.265853 75.271837 455.36681 76.604347 C 454.483821 77.952912 453.456343 79.189096 452.316485 80.328955 C 451.192681 81.468813 449.956496 82.480237 448.607931 83.363226 C 447.275421 84.262269 445.862639 85.016823 444.369585 85.642943 C 442.892585 86.253008 441.351368 86.718584 439.778042 87.023616 C 438.204717 87.344703 436.615337 87.505247 434.993848 87.505247 L 34.004504 87.505247 C 32.399069 87.505247 30.793635 87.344703 29.220309 87.023616 C 27.646984 86.718584 26.105767 86.253008 24.628767 85.642943 C 23.135713 85.016823 21.722931 84.262269 20.39042 83.363226 C 19.05791 82.480237 17.805671 81.468813 16.681867 80.328955 C 15.542008 79.189096 14.530585 77.952912 13.631542 76.604347 C 12.732498 75.271837 11.977944 73.859054 11.367879 72.382055 C 10.74176 70.889001 10.292238 69.363838 9.971151 67.774458 C 9.650064 66.201132 9.505575 64.611752 9.505575 63.006318 L 9.505575 33.000749 C 9.505575 31.395315 9.650064 29.805935 9.971151 28.216555 C 10.292238 26.643229 10.74176 25.118067 11.367879 23.625013 C 11.977944 22.131959 12.732498 20.719176 13.631542 19.386666 C 14.530585 18.054155 15.542008 16.817971 16.681867 15.678113 C 17.805671 14.538254 19.05791 13.52683 20.39042 12.627787 C 21.722931 11.728744 23.135713 10.97419 24.628767 10.364125 C 26.105767 9.75406 27.646984 9.288484 29.220309 8.967397 C 30.793635 8.662364 32.399069 8.501821 34.004504 8.501821 Z M 34.004504 8.501821 " stroke="#000000" stroke-width="1" stroke-opacity="1" stroke-miterlimit="4"/></g><g clip-path="url(#87d31dd5c3)"><path fill="#f1c4e5" d="M 90.371094 283.203125 L 187.941406 283.203125 C 188.332031 283.203125 188.71875 283.238281 189.105469 283.316406 C 189.488281 283.390625 189.859375 283.503906 190.222656 283.65625 C 190.582031 283.804688 190.925781 283.988281 191.253906 284.207031 C 191.578125 284.421875 191.878906 284.671875 192.15625 284.949219 C 192.433594 285.222656 192.679688 285.523438 192.898438 285.851562 C 193.113281 286.175781 193.296875 286.519531 193.449219 286.882812 C 193.597656 287.242188 193.710938 287.617188 193.789062 288 C 193.863281 288.382812 193.902344 288.769531 193.902344 289.164062 L 193.902344 295.976562 C 193.902344 296.367188 193.863281 296.753906 193.789062 297.136719 C 193.710938 297.523438 193.597656 297.894531 193.449219 298.257812 C 193.296875 298.617188 193.113281 298.960938 192.898438 299.289062 C 192.679688 299.613281 192.433594 299.914062 192.15625 300.191406 C 191.878906 300.46875 191.578125 300.714844 191.253906 300.933594 C 190.925781 301.148438 190.582031 301.332031 190.222656 301.484375 C 189.859375 301.632812 189.488281 301.746094 189.105469 301.820312 C 188.71875 301.898438 188.332031 301.9375 187.941406 301.9375 L 90.371094 301.9375 C 89.980469 301.9375 89.59375 301.898438 89.207031 301.820312 C 88.824219 301.746094 88.453125 301.632812 88.089844 301.484375 C 87.730469 301.332031 87.386719 301.148438 87.058594 300.933594 C 86.734375 300.714844 86.433594 300.46875 86.15625 300.191406 C 85.878906 299.914062 85.632812 299.613281 85.414062 299.289062 C 85.199219 298.960938 85.015625 298.617188 84.863281 298.257812 C 84.714844 297.894531 84.601562 297.523438 84.523438 297.136719 C 84.449219 296.753906 84.410156 296.367188 84.410156 295.976562 L 84.410156 289.164062 C 84.410156 288.769531 84.449219 288.382812 84.523438 288 C 84.601562 287.617188 84.714844 287.242188 84.863281 286.882812 C 85.015625 286.519531 85.199219 286.175781 85.414062 285.851562 C 85.632812 285.523438 85.878906 285.222656 86.15625 284.949219 C 86.433594 284.671875 86.734375 284.421875 87.058594 284.207031 C 87.386719 283.988281 87.730469 283.804688 88.089844 283.65625 C 88.453125 283.503906 88.824219 283.390625 89.207031 283.316406 C 89.59375 283.238281 89.980469 283.203125 90.371094 283.203125 Z M 90.371094 283.203125 " fill-opacity="1" fill-rule="nonzero"/></g><g clip-path="url(#5969c02219)"><path stroke-linecap="butt" transform="matrix(0.243314, 0, 0, 0.243314, 84.288721, 283.079824)" fill="none" stroke-linejoin="miter" d="M 24.998017 0.506758 L 426.003415 0.506758 C 427.60885 0.506758 429.19823 0.651247 430.78761 0.972334 C 432.360936 1.277366 433.886098 1.742942 435.379152 2.369062 C 436.856152 2.979127 438.268934 3.733681 439.617499 4.632724 C 440.950009 5.515713 442.186194 6.543191 443.326052 7.683049 C 444.465911 8.806853 445.477334 10.043038 446.376378 11.391603 C 447.259367 12.724113 448.013921 14.136896 448.64004 15.62995 C 449.250105 17.106949 449.715681 18.648166 450.036768 20.221492 C 450.341801 21.794818 450.502344 23.384198 450.502344 25.005686 L 450.502344 53.004462 C 450.502344 54.609896 450.341801 56.199276 450.036768 57.772602 C 449.715681 59.361982 449.250105 60.887145 448.64004 62.380199 C 448.013921 63.857198 447.259367 65.26998 446.376378 66.618545 C 445.477334 67.951056 444.465911 69.18724 443.326052 70.327099 C 442.186194 71.466957 440.950009 72.478381 439.617499 73.377424 C 438.268934 74.260413 436.856152 75.014967 435.379152 75.641086 C 433.886098 76.251152 432.360936 76.716728 430.78761 77.02176 C 429.19823 77.342847 427.60885 77.50339 426.003415 77.50339 L 24.998017 77.50339 C 23.392583 77.50339 21.803203 77.342847 20.213823 77.02176 C 18.640497 76.716728 17.115334 76.251152 15.62228 75.641086 C 14.145281 75.014967 12.732498 74.260413 11.383933 73.377424 C 10.051423 72.478381 8.815238 71.466957 7.67538 70.327099 C 6.535522 69.18724 5.524098 67.951056 4.625055 66.618545 C 3.742066 65.26998 2.987512 63.857198 2.361392 62.380199 C 1.751327 60.887145 1.285751 59.361982 0.964664 57.772602 C 0.659632 56.199276 0.499088 54.609896 0.499088 53.004462 L 0.499088 25.005686 C 0.499088 23.384198 0.659632 21.794818 0.964664 20.221492 C 1.285751 18.648166 1.751327 17.106949 2.361392 15.62995 C 2.987512 14.136896 3.742066 12.724113 4.625055 11.391603 C 5.524098 10.043038 6.535522 8.806853 7.67538 7.683049 C 8.815238 6.543191 10.051423 5.515713 11.383933 4.632724 C 12.732498 3.733681 14.145281 2.979127 15.62228 2.369062 C 17.115334 1.742942 18.640497 1.277366 20.213823 0.972334 C 21.803203 0.651247 23.392583 0.506758 24.998017 0.506758 Z M 24.998017 0.506758 " stroke="#000000" stroke-width="1" stroke-opacity="1" stroke-miterlimit="4"/></g><g clip-path="url(#de538890fe)"><path stroke-linecap="butt" transform="matrix(0.243314, 0, 0, 0.243314, 84.288721, 283.079824)" fill="none" stroke-linejoin="miter" d="M 348.493044 -0.00698132 L 348.493044 78.001075 " stroke="#000000" stroke-width="1" stroke-opacity="1" stroke-miterlimit="4"/></g><path stroke-linecap="butt" transform="matrix(0.19216, -0.149253, 0.149253, 0.19216, 98.684302, 344.81051)" fill-opacity="1" fill="#f1c4e5" fill-rule="nonzero" stroke-linejoin="miter" d="M 401.212273 40.541434 C 401.613574 40.548208 401.974129 40.685959 402.251714 40.982876 C 402.551825 41.276961 402.699909 41.635918 402.705814 42.047067 L 402.700357 72.047183 C 402.706262 72.458333 402.555832 72.809039 402.261747 73.109151 C 401.977509 73.396583 401.618552 73.544667 401.194724 73.540724 C 400.783575 73.546629 400.432868 73.396199 400.132756 73.102114 C 399.855172 72.805197 399.69724 72.458919 399.701183 72.035091 L 399.696792 42.047654 C 399.700735 41.623826 399.851165 41.273119 400.135402 40.985687 C 400.429488 40.685575 400.788445 40.537491 401.212273 40.541434 Z M 401.212273 40.541434 " stroke="#000000" stroke-width="1" stroke-opacity="1" stroke-miterlimit="4"/><path stroke-linecap="butt" transform="matrix(0.243314, 0, 0, 0.243314, 84.288721, 283.079824)" fill-opacity="1" fill="#f1c4e5" fill-rule="nonzero" stroke-linejoin="miter" d="M 408.504181 30.993956 C 408.504181 33.048912 408.102822 35.039651 407.316159 36.934064 C 406.529496 38.828476 405.405692 40.514182 403.960801 41.959073 C 402.499856 43.420019 400.830204 44.527768 398.935792 45.314431 C 397.025325 46.101094 395.050641 46.502453 392.995685 46.502453 C 390.940729 46.502453 388.966044 46.101094 387.071632 45.314431 C 385.177219 44.527768 383.491513 43.420019 382.046622 41.959073 C 380.585677 40.514182 379.461873 38.828476 378.67521 36.934064 C 377.888547 35.039651 377.503243 33.048912 377.503243 30.993956 C 377.503243 28.939 377.888547 26.964316 378.67521 25.069904 C 379.461873 23.175491 380.585677 21.489785 382.046622 20.044894 C 383.491513 18.583949 385.177219 17.460145 387.071632 16.673482 C 388.966044 15.886819 390.940729 15.501515 392.995685 15.501515 C 395.050641 15.501515 397.025325 15.886819 398.935792 16.673482 C 400.830204 17.460145 402.499856 18.583949 403.960801 20.044894 C 405.405692 21.489785 406.529496 23.175491 407.316159 25.069904 C 408.102822 26.964316 408.504181 28.939 408.504181 30.993956 Z M 408.504181 30.993956 " stroke="#000000" stroke-width="1" stroke-opacity="1" stroke-miterlimit="4"/><g transform="matrix(1, 0, 0, 1, 121, 284)"><g clip-path="url(#733601cd3b)"><g fill="#ffffff" fill-opacity="1"><g transform="translate(0.842936, 12.736078)"><g><path d="M 2.609375 0.09375 C 1.910156 0.09375 1.378906 -0.117188 1.015625 -0.546875 C 0.648438 -0.984375 0.445312 -1.578125 0.40625 -2.328125 L 1.421875 -2.609375 C 1.460938 -2.078125 1.566406 -1.644531 1.734375 -1.3125 C 1.910156 -0.988281 2.203125 -0.828125 2.609375 -0.828125 C 2.910156 -0.828125 3.132812 -0.910156 3.28125 -1.078125 C 3.4375 -1.242188 3.515625 -1.484375 3.515625 -1.796875 C 3.515625 -2.140625 3.441406 -2.421875 3.296875 -2.640625 C 3.160156 -2.867188 2.9375 -3.117188 2.625 -3.390625 L 1.21875 -4.625 C 0.9375 -4.875 0.734375 -5.140625 0.609375 -5.421875 C 0.484375 -5.703125 0.421875 -6.050781 0.421875 -6.46875 C 0.421875 -7.070312 0.59375 -7.539062 0.9375 -7.875 C 1.289062 -8.21875 1.769531 -8.390625 2.375 -8.390625 C 3.03125 -8.390625 3.523438 -8.210938 3.859375 -7.859375 C 4.191406 -7.515625 4.394531 -6.972656 4.46875 -6.234375 L 3.484375 -5.96875 C 3.441406 -6.457031 3.34375 -6.832031 3.1875 -7.09375 C 3.039062 -7.363281 2.769531 -7.5 2.375 -7.5 C 2.082031 -7.5 1.851562 -7.421875 1.6875 -7.265625 C 1.53125 -7.109375 1.453125 -6.878906 1.453125 -6.578125 C 1.453125 -6.328125 1.492188 -6.117188 1.578125 -5.953125 C 1.660156 -5.785156 1.800781 -5.617188 2 -5.453125 L 3.40625 -4.21875 C 3.769531 -3.894531 4.054688 -3.546875 4.265625 -3.171875 C 4.484375 -2.796875 4.59375 -2.367188 4.59375 -1.890625 C 4.59375 -1.273438 4.40625 -0.789062 4.03125 -0.4375 C 3.664062 -0.0820312 3.191406 0.09375 2.609375 0.09375 Z M 2.609375 0.09375 "/></g></g></g><g fill="#ffffff" fill-opacity="1"><g transform="translate(5.69808, 12.736078)"><g><path d="M 0.703125 -8.3125 L 1.84375 -8.3125 L 1.84375 0 L 0.703125 0 Z M 0.703125 -8.3125 "/></g></g></g><g fill="#ffffff" fill-opacity="1"><g transform="translate(8.243691, 12.736078)"><g><path d="M 2.625 0.109375 C 1.875 0.109375 1.332031 -0.128906 1 -0.609375 C 0.664062 -1.085938 0.5 -1.796875 0.5 -2.734375 L 0.5 -5.515625 C 0.5 -6.160156 0.5625 -6.6875 0.6875 -7.09375 C 0.820312 -7.507812 1.050781 -7.828125 1.375 -8.046875 C 1.707031 -8.273438 2.15625 -8.390625 2.71875 -8.390625 C 3.488281 -8.390625 4.039062 -8.191406 4.375 -7.796875 C 4.71875 -7.410156 4.890625 -6.800781 4.890625 -5.96875 L 4.890625 -5.65625 L 3.796875 -5.65625 L 3.796875 -5.90625 C 3.796875 -6.3125 3.769531 -6.617188 3.71875 -6.828125 C 3.675781 -7.046875 3.578125 -7.207031 3.421875 -7.3125 C 3.265625 -7.425781 3.035156 -7.484375 2.734375 -7.484375 C 2.421875 -7.484375 2.179688 -7.410156 2.015625 -7.265625 C 1.859375 -7.117188 1.757812 -6.921875 1.71875 -6.671875 C 1.675781 -6.421875 1.65625 -6.09375 1.65625 -5.6875 L 1.65625 -2.609375 C 1.65625 -1.972656 1.726562 -1.515625 1.875 -1.234375 C 2.03125 -0.960938 2.328125 -0.828125 2.765625 -0.828125 C 3.203125 -0.828125 3.5 -0.972656 3.65625 -1.265625 C 3.820312 -1.566406 3.90625 -2.050781 3.90625 -2.71875 L 3.90625 -3.296875 L 2.84375 -3.296875 L 2.84375 -4.109375 L 4.953125 -4.109375 L 4.953125 0 L 4.21875 0 L 4.109375 -0.953125 C 3.847656 -0.242188 3.351562 0.109375 2.625 0.109375 Z M 2.625 0.109375 "/></g></g></g><g fill="#ffffff" fill-opacity="1"><g transform="translate(13.735238, 12.736078)"><g><path d="M 0.640625 -8.3125 L 1.4375 -8.3125 L 3.796875 -2.796875 L 3.796875 -8.3125 L 4.765625 -8.3125 L 4.765625 0 L 4.03125 0 L 1.625 -5.671875 L 1.625 0 L 0.640625 0 Z M 0.640625 -8.3125 "/></g></g></g><g fill="#ffffff" fill-opacity="1"><g transform="translate(19.15493, 12.736078)"><g/></g></g><g fill="#ffffff" fill-opacity="1"><g transform="translate(21.505515, 12.736078)"><g><path d="M 0.703125 -8.3125 L 1.84375 -8.3125 L 1.84375 0 L 0.703125 0 Z M 0.703125 -8.3125 "/></g></g></g><g fill="#ffffff" fill-opacity="1"><g transform="translate(24.051126, 12.736078)"><g><path d="M 0.640625 -8.3125 L 1.4375 -8.3125 L 3.796875 -2.796875 L 3.796875 -8.3125 L 4.765625 -8.3125 L 4.765625 0 L 4.03125 0 L 1.625 -5.671875 L 1.625 0 L 0.640625 0 Z M 0.640625 -8.3125 "/></g></g></g></g></g></svg>